<svg data-v-1e121de1="" version="1.0" xmlns="http://www.w3.org/2000/svg" xmlns:xlink="http://www.w3.org/1999/xlink" width="100%" height="100%" viewBox="0 0 192 192" preserveAspectRatio="xMidYMid meet" color-interpolation-filters="sRGB" class="el-tooltip" style="/* margin: auto; *//* display:flex; *//* justify-content: center; *//* align-items: center; */width: 192px;height: 192px;">  <g data-v-1e121de1="" class="iconmbgsvg" transform="translate(21,21)"><g fill="#000000" hollow-target="textNormal"><g fill-opacity="0.55" stroke-opacity="0.55"> <svg x="0" y="0" width="150" height="150" filtersec="colorsb5068009059" class="image-svg-svg primary"><svg xmlns="http://www.w3.org/2000/svg" viewBox="0 0 437.48 437.48"><path fill="#bcbbaf" d="M218.745 218.21v.6L29.365 328.15l-.06-.04V109.37l.47-.27z"></path><path fill="#e2e0d0" d="M218.745 218.81v218.67L29.365 328.15z"></path><path fill="#c97e6f" d="M408.175 109.37v218.74l-.06.03-189.37-109.33v-.6l188.97-109.11z"></path><path fill="#e59683" d="M408.115 328.14l-189.37 109.34V218.81zM407.715 109.1l-188.97 109.11V0z"></path><path fill="#e2e0d0" d="M218.745 0v218.21L29.775 109.1z"></path></svg></svg> <!----></g> <g transform="translate(54.98500061035156,55.915000915527344)"><g fill-rule="" class="tp-name"><g><path d="M4.24 0L4.24-38.17L17.82-38.17L24.14-16.66L24.48-16.66L31.07-38.17L44.27-38.17L44.27 0L36.02 0L36.02-30.03L35.70-30.03L28.32-7.21L19.96-7.21L12.71-30.03L12.38-30.03L12.38 0L4.24 0Z" transform="translate(-4.235, 38.17)"></path></g> <!----> <!----> <!----> <!----> <!----> <!----> <!----></g> <!----></g></g></g></svg>