<svg data-v-1e121de1="" version="1.0" xmlns="http://www.w3.org/2000/svg" xmlns:xlink="http://www.w3.org/1999/xlink" width="100%" height="100%" viewBox="0 0 340.000000 250.000000" preserveAspectRatio="xMidYMid meet" color-interpolation-filters="sRGB" class="el-tooltip" style="margin: auto;"><rect data-v-1e121de1="" x="0" y="0" width="100%" height="100%" fill="#fa1d42" fill-opacity="1" class="background"></rect> <rect data-v-1e121de1="" x="0" y="0" width="100%" height="100%" fill="url(#watermark)" fill-opacity="1" class="watermarklayer"></rect> <g data-v-1e121de1="" fill="#fff" class="linesvg" transform="translate(120.66452407836914,90.38500213623047)"><line stroke="#fff" stroke-width="2" x1="0" y1="0" x2="21.375049322994546" y2="15"></line> <line stroke="#fff" stroke-width="2" x1="98.6529769897461" y1="0" x2="77.27792766675155" y2="15"></line> <line stroke="#fff" stroke-width="2" x1="0" y1="69.22999954223633" x2="21.375049322994546" y2="54.22999954223633"></line> <line stroke="#fff" stroke-width="2" x1="98.6529769897461" y1="69.22999954223633" x2="77.27792766675155" y2="54.22999954223633"></line> <g fill="#fff" transform="translate(0,20)"><g fill-rule="" class="tp-name"><g><path d="M15.93-19.30L15.93-19.30Q16.47-19.39 17.19-19.21L17.19-19.21Q17.86-19.04 18-18.83Q18.13-18.63 18.40-18.40L18.40-18.40Q18.68-18.13 18.86-17.66Q19.04-17.19 18.97-16.92Q18.90-16.65 19.01-16.20Q19.13-15.75 19.04-14.78Q18.95-13.81 18.72-13.59L18.72-13.59Q18.54-13.41 18.50-11.41Q18.45-9.40 18.74-8.01Q19.04-6.61 18.97-6.46Q18.90-6.30 19.04-6.21L19.04-6.21Q19.04-6.21 19.08-6.01Q19.13-5.80 19.10-5.65Q19.08-5.49 19.04-5.49L19.04-5.49Q18.90-5.49 18.50-5.96Q18.09-6.43 17.91-6.79L17.91-6.79Q17.32-8.01 16.96-10.44L16.96-10.44Q16.79-11.79 16.88-14.58Q16.96-17.37 16.92-17.59L16.92-17.59Q16.70-18.27 15.48-17.37L15.48-17.37Q15.07-17.05 14.67-16.65L14.67-16.65Q14.04-15.88 13.03-13.63Q12.01-11.38 12.01-10.66L12.01-10.66Q12.01-10.44 11.65-8.23L11.65-8.23Q11.12-4.95 10.62-4.95L10.62-4.95Q10.44-4.95 10.19-5.54Q9.95-6.12 9.81-6.61L9.81-6.61Q9.72-7.06 9.56-7.31Q9.40-7.56 9.40-7.83L9.40-7.83Q9.40-8.05 9.20-8.28Q9-8.50 8.87-8.41L8.87-8.41Q8.59-8.37 8.55-8.50L8.55-8.50Q8.41-8.59 8.59-8.64L8.59-8.64Q8.64-8.69 8.69-8.69L8.69-8.69Q8.96-8.78 8.96-9.11Q8.96-9.45 9.22-9.54L9.22-9.54Q9.54-9.72 9.67-10.19Q9.81-10.66 9.95-11.88L9.95-11.88Q10.30-17.05 9.49-17.23L9.49-17.23Q9.27-17.32 9.18-17.21Q9.09-17.10 8.66-17.03Q8.23-16.96 7.88-16.65L7.88-16.65Q7.38-16.34 6.73-15.64Q6.08-14.94 5.98-14.67L5.98-14.67Q5.80-14.35 5.44-13.54Q5.08-12.73 4.95-11.70Q4.81-10.66 4.63-10.08Q4.46-9.49 4.14-7.96L4.14-7.96Q3.65-4.91 3.38-3.87L3.38-3.87Q3.19-3.15 2.97-2.63Q2.75-2.11 2.61-2.11L2.61-2.11Q2.34-2.11 1.73-2.99Q1.13-3.87 1.03-4.37L1.03-4.37Q0.90-4.63 0.70-4.91Q0.49-5.17 0.40-5.08L0.40-5.08L0.32-5.31Q0.32-5.35 0.40-5.40L0.40-5.40Q0.40-5.71 0.27-5.89L0.27-5.89Q-0.04-6.30 0.54-6.61L0.54-6.61Q0.81-6.75 0.90-7.00Q0.99-7.25 1.13-8.73L1.13-8.73L1.44-10.98Q1.62-12.33 1.62-13.99L1.62-13.99Q1.67-16.20 1.13-17.01L1.13-17.01Q0.85-17.46 0.85-17.50Q0.85-17.55 1.13-17.37L1.13-17.37Q1.48-17.19 1.57-17.26Q1.67-17.32 2.07-17.19Q2.48-17.05 2.61-16.92L2.61-16.92Q2.92-16.65 3.31-15.95Q3.69-15.25 3.92-14.71L3.92-14.71Q4.14-13.99 4.23-13.86L4.23-13.86Q4.23-13.86 4.30-13.97Q4.37-14.08 4.54-14.24Q4.72-14.40 4.81-14.58L4.81-14.58Q5.71-15.88 6.46-16.63Q7.20-17.37 8.32-17.86L8.32-17.86Q9-18.27 9.72-18.25Q10.44-18.22 10.66-18.09L10.66-18.09Q10.89-17.95 11.25-17.21Q11.61-16.47 11.74-15.84L11.74-15.84Q11.88-15.03 11.88-14.94L11.88-14.94Q11.88-14.94 11.97-15.10Q12.06-15.25 12.24-15.50Q12.42-15.75 12.64-16.02L12.64-16.02Q13.46-17.14 14.26-17.95Q15.07-18.77 15.07-18.81L15.07-18.81Q15.07-19.13 15.93-19.30ZM7.47-16.92L7.47-16.92Q7.92-17.23 7.88-17.32L7.88-17.32Q7.83-17.37 7.38-17.01L7.38-17.01Q6.93-16.74 6.23-16.00Q5.54-15.25 5.54-15.12Q5.54-14.98 6.25-15.75Q6.97-16.52 7.47-16.92ZM26.32-19.13L26.32-19.13Q26.55-19.35 27.90-19.08L27.90-19.08L28.89-18.86Q29.34-18.77 29.38-18.59L29.38-18.59Q29.43-18.45 29.97-17.93Q30.51-17.41 30.69-17.37L30.69-17.37Q30.91-17.28 31.03-16.99Q31.14-16.70 31.36-15.57L31.36-15.57Q31.45-14.85 30.15-13.54L30.15-13.54Q29.66-13.05 29.66-12.91Q29.66-12.78 29.34-12.64Q29.02-12.51 28.93-12.31Q28.84-12.11 28.66-12.13Q28.48-12.15 28.08-11.83Q27.67-11.52 27.52-11.52Q27.36-11.52 26.91-11.14Q26.46-10.75 26.46-10.89L26.46-10.89Q26.46-11.21 26.10-10.93L26.10-10.93Q26.10-10.84 26.01-10.75L26.01-10.75Q25.88-10.57 24.84-10.57L24.84-10.57Q23.63-10.57 22.50-11.03L22.50-11.03Q22.36-11.16 22.36-10.98L22.36-10.98Q22.36-10.84 22.41-10.53L22.41-10.53Q22.50-9.54 23.36-8.39Q24.21-7.25 25.29-6.75L25.29-6.75Q26.32-6.21 27.27-6.10Q28.21-5.98 29.66-6.21L29.66-6.21Q31.54-6.52 31.99-6.34L31.99-6.34Q32.40-6.25 32.40-6.03Q32.40-5.80 32.51-5.58Q32.63-5.35 32.51-5.24Q32.40-5.13 32.49-5.00L32.49-5.00Q32.49-4.86 32.27-4.75Q32.04-4.63 31.75-4.57Q31.45-4.50 31.32-4.50L31.32-4.50Q31.09-4.59 31.05-4.50L31.05-4.50Q31.00-4.37 30.02-4.25Q29.02-4.14 28.39-4.14L28.39-4.14Q27.31-4.18 26.46-4.48Q25.60-4.77 24.21-5.54L24.21-5.54Q23.09-6.25 22.48-6.77Q21.87-7.29 21.24-8.14L21.24-8.14Q20.38-9.54 20.25-11.29L20.25-11.29Q20.16-12.46 20.07-12.78L20.07-12.78L20.07-13.05Q20.07-13.00 20.16-12.96L20.16-12.96Q20.38-12.60 20.52-13.23L20.52-13.23Q20.52-13.28 20.52-13.37L20.52-13.37Q20.61-13.81 21.04-14.83Q21.46-15.84 21.73-16.43L21.73-16.43Q22.14-17.37 23.24-18.11Q24.34-18.86 25.65-19.04L25.65-19.04Q26.28-19.08 26.32-19.13ZM27.45-17.05L27.45-17.05Q26.82-17.32 25.60-17.01Q24.39-16.70 23.85-16.16L23.85-16.16Q23.58-15.79 23.24-14.98Q22.90-14.17 22.72-13.59L22.72-13.59Q22.63-13.28 22.61-13.09Q22.59-12.91 22.72-12.91L22.72-12.91Q22.90-12.91 23.40-13.09L23.40-13.09Q24.57-13.54 26.55-15.07L26.55-15.07Q27.72-15.88 27.99-16.11L27.99-16.11Q28.17-16.20 28.19-16.29Q28.21-16.38 28.03-16.56L28.03-16.56Q27.85-16.88 27.45-17.05ZM32.58-31.23L32.58-31.23Q32.67-31.45 32.85-31.23L32.85-31.23Q32.89-31.18 32.98-30.96L32.98-30.96Q33.25-30.46 34.02-29.70L34.02-29.70Q34.92-28.80 35.21-28.30Q35.50-27.81 35.73-27L35.73-27Q35.95-26.05 36.02-23.60Q36.09-21.15 35.95-19.48L35.95-19.48Q35.77-17.91 35.73-14.26L35.73-14.26Q35.50-4.23 35.28-4.09L35.28-4.09Q35.14-4.09 35.14-3.87L35.14-3.87Q35.14-3.73 35.10-3.69Q35.05-3.65 35.01-3.65L35.01-3.65Q34.92-3.73 34.47-3.24L34.47-3.24L34.11-2.79L33.61-3.24Q33.07-3.65 33.01-4.25Q32.94-4.86 32.78-5.63Q32.63-6.39 32.65-6.59Q32.67-6.79 32.80-8.14L32.80-8.14Q32.98-10.30 33.12-16.43Q33.25-22.54 33.25-26.68L33.25-26.68Q33.25-28.26 33.21-28.66Q33.16-29.07 32.85-29.61L32.85-29.61Q32.27-30.64 32.58-31.23ZM42.26-19.71L42.26-19.71Q42.48-19.75 42.75-19.75L42.75-19.75L42.98-19.75L42.75-19.57Q42.34-19.30 42.66-19.30L42.66-19.30Q42.80-19.26 42.98-19.30L42.98-19.30Q43.52-19.35 43.79-19.44L43.79-19.44Q45.36-19.57 45.77-19.48L45.77-19.48Q46.84-19.17 47.61-18.13L47.61-18.13L48.20-17.41Q48.83-16.74 49.05-15.52L49.05-15.52Q49.14-14.94 49.19-14.80L49.19-14.80Q49.23-14.63 49.27-13.86Q49.32-13.09 49.19-12.78L49.19-12.78Q49.14-12.46 49.23-12.46L49.23-12.46Q49.32-12.46 49.32-12.31Q49.32-12.15 49.27-11.88Q49.23-11.61 49.14-11.25L49.14-11.25Q49.14-10.98 49.14-10.73Q49.14-10.48 49.01-10.28Q48.87-10.08 48.87-9.49L48.87-9.49Q48.83-8.91 48.78-8.91L48.78-8.91Q48.65-8.96 48.65-8.87Q48.65-8.78 48.73-8.69Q48.83-8.59 48.62-8.44Q48.42-8.28 48.28-7.92L48.28-7.92Q48.11-7.60 48.15-7.60L48.15-7.60Q48.20-7.60 48.24-7.60L48.24-7.60Q48.33-7.65 48.35-7.60Q48.38-7.56 48.33-7.42L48.33-7.42Q48.28-7.06 48.15-7.02L48.15-7.02Q48.11-7.06 48.11-7.06L48.11-7.06Q48.11-7.25 47.90-6.91Q47.70-6.57 47.59-6.57Q47.48-6.57 47.43-6.25L47.43-6.25Q47.39-5.98 47.16-5.67Q46.94-5.35 46.80-5.35L46.80-5.35Q46.76-5.35 46.35-5.04L46.35-5.04Q45.77-4.59 44.46-4.41L44.46-4.41Q42.84-4.18 42.84-4.54L42.84-4.54Q42.84-4.59 42.34-4.66Q41.85-4.72 41.38-5.04Q40.91-5.35 40.77-5.35L40.77-5.35Q40.59-5.35 39.91-6.14Q39.24-6.93 39.02-7.33L39.02-7.33Q38.79-7.74 38.50-8.71Q38.20-9.67 38.16-10.08L38.16-10.08Q38.02-10.93 37.98-12.11L37.98-12.11Q37.98-13.18 38.30-14.63L38.30-14.63Q38.48-15.39 39.06-16.56L39.06-16.56Q39.38-17.14 39.33-17.32Q39.29-17.50 38.97-17.50L38.97-17.50L38.70-17.55L38.75-17.59L39.02-17.64Q39.15-17.68 39.06-17.82L39.06-17.82Q38.75-18.13 39.11-18.13L39.11-18.13Q39.33-18.13 39.38-18.22Q39.42-18.31 39.67-18.31Q39.91-18.31 40.30-18.59Q40.68-18.86 40.73-18.86Q40.77-18.86 40.95-19.01Q41.13-19.17 41.60-19.42Q42.08-19.66 42.26-19.71ZM45.67-16.70L45.67-16.70Q44.87-17.14 42.52-16.88L42.52-16.88Q42.16-16.83 42.05-16.74Q41.94-16.65 41.67-16.25L41.67-16.25Q40.95-15.30 40.55-13.86L40.55-13.86Q40.32-13.00 40.32-11.25L40.32-11.25Q40.32-9.27 40.57-8.55Q40.81-7.83 41.67-7.42L41.67-7.42Q42.30-7.11 43.06-7.11Q43.83-7.11 44.37-7.38L44.37-7.38Q45.81-8.05 46.58-10.17L46.58-10.17Q47.07-11.61 47.02-13.09L47.02-13.09Q47.02-16.06 45.67-16.70ZM47.07-5.94Q47.16-5.94 47.23-6.05Q47.30-6.17 47.14-6.17Q46.98-6.17 46.98-6.05Q46.98-5.94 47.07-5.94ZM46.24-5.29Q46.35-5.35 46.35-5.47Q46.35-5.58 46.24-5.58Q46.13-5.58 46.13-5.40Q46.13-5.22 46.24-5.29ZM51.70-19.53L51.70-19.53L51.75-19.84L51.84-19.62Q51.97-19.35 52.60-18.68L52.60-18.68Q53.05-18.27 53.19-18.04Q53.32-17.82 53.41-17.23L53.41-17.23Q53.59-16.43 53.66-15.88Q53.73-15.34 53.77-14.98L53.77-14.98L53.86-14.67L54.99-15.88Q56.20-17.05 56.56-17.32Q56.92-17.59 57.10-17.95L57.10-17.95Q57.38-18.36 58.39-18.65Q59.40-18.95 59.89-18.81L59.89-18.81Q60.16-18.72 60.66-18.68L60.66-18.68Q60.97-18.63 61.31-17.75Q61.65-16.88 61.74-15.79L61.74-15.79Q61.78-14.98 61.85-14.76Q61.92-14.54 61.96-12.46L61.96-12.46Q62.01-11.74 62.01-11.38Q62.01-11.03 62.01-10.80Q62.01-10.57 61.96-10.51Q61.92-10.44 61.88-10.44L61.88-10.44Q61.78-10.48 61.78-10.35L61.78-10.35Q61.78-10.21 61.83-9.72L61.83-9.72Q61.96-8.32 62.64-7.02L62.64-7.02Q62.77-6.84 62.80-6.66Q62.82-6.48 62.82-6.39Q62.82-6.30 62.77-6.30L62.77-6.30Q62.64-6.30 62.59-6.10Q62.55-5.89 62.41-5.94Q62.28-5.98 62.28-5.89Q62.28-5.80 62.41-5.71L62.41-5.71Q62.55-5.67 62.53-5.51Q62.50-5.35 62.32-5.35L62.32-5.35Q62.19-5.35 62.30-5.24Q62.41-5.13 62.41-4.97Q62.41-4.81 62.23-4.81L62.23-4.81Q62.14-4.81 62.19-4.68L62.19-4.68Q62.23-4.50 62.05-4.54L62.05-4.54Q62.01-4.54 61.88-4.63L61.88-4.63Q61.69-4.77 61.69-4.63L61.69-4.63Q61.69-4.59 61.81-4.43Q61.92-4.27 61.81-4.27Q61.69-4.27 61.69-4.23L61.69-4.23Q61.74-4.18 61.69-4.14L61.69-4.14Q61.20-4.05 60.97-4.27L60.97-4.27Q60.61-4.63 60.16-5.58Q59.71-6.52 59.44-7.47L59.44-7.47Q58.77-9.58 58.77-12.38L58.77-12.38Q58.72-14.45 58.45-14.85L58.45-14.85Q58.32-14.98 57.51-14.17Q56.70-13.37 56.45-12.96Q56.20-12.55 56.02-12.38Q55.84-12.20 55.84-12.06Q55.84-11.92 55.71-11.88L55.71-11.88Q55.62-11.79 55.15-10.80Q54.67-9.81 54.67-9.67L54.67-9.67Q54.67-9.45 54.49-9.13L54.49-9.13Q54.22-8.41 54-7.06L54-7.06Q53.95-6.88 53.84-6.37Q53.73-5.85 53.66-4.93Q53.59-4.00 53.50-4.00Q53.41-4.00 53.41-3.82Q53.41-3.65 53.21-3.51Q53.01-3.38 53.01-3.26Q53.01-3.15 52.70-2.88L52.70-2.88Q52.56-2.75 52.49-2.75Q52.42-2.75 52.33-2.83L52.33-2.83Q52.29-3.06 52.11-3.06Q51.93-3.06 51.93-3.22Q51.93-3.38 51.79-3.38L51.79-3.38Q51.70-3.38 51.46-3.92Q51.21-4.46 51.16-5.00L51.16-5.00Q50.98-6.43 50.71-6.43L50.71-6.43Q50.63-6.43 50.63-6.59Q50.63-6.75 50.45-6.66L50.45-6.66Q50.40-6.66 50.24-6.61Q50.08-6.57 49.97-6.57Q49.86-6.57 49.86-6.66L49.86-6.66Q49.86-6.75 49.54-6.75L49.54-6.75L49.27-6.75L49.54-6.79Q49.77-6.84 49.81-6.93Q49.86-7.02 49.86-7.25L49.86-7.25Q49.86-8.14 50.31-8.23L50.31-8.23Q50.71-8.37 51.01-8.89Q51.30-9.40 51.39-10.13L51.39-10.13Q51.43-10.80 51.48-11.92Q51.52-13.05 51.66-13.90L51.66-13.90Q51.75-14.98 51.77-16.76Q51.79-18.54 51.70-18.72L51.70-18.72Q51.52-18.99 51.55-19.10Q51.57-19.21 51.70-19.53ZM70.65-30.11L70.65-30.11Q70.88-30.33 71.41-29.97L71.41-29.97L71.77-29.70Q73.30-28.80 74.20-27.22L74.20-27.22Q74.34-27 74.47-26.23Q74.61-25.47 74.56-25.20L74.56-25.20Q74.43-24.43 74.30-24.21L74.30-24.21Q74.20-24.07 74.09-23.51Q73.98-22.95 73.84-22.84Q73.71-22.72 73.71-22.59Q73.71-22.45 73.58-22.45L73.58-22.45Q73.30-22.45 73.53-22.23L73.53-22.23Q73.62-22.14 73.75-22.09L73.75-22.09Q75.06-21.87 75.24-21.60L75.24-21.60Q75.38-21.38 75.38-20.79L75.38-20.79Q75.38-20.25 75.24-19.71Q75.10-19.17 74.20-16.74L74.20-16.74Q73.89-15.88 73.73-15.30Q73.58-14.71 73.46-14.45Q73.35-14.17 73.06-13.03Q72.77-11.88 72.67-11.83Q72.58-11.79 72.50-11.29L72.50-11.29Q72-9.54 71.95-9.22L71.95-9.22Q71.86-8.78 71.46-7.42L71.46-7.42Q71.41-7.15 71.41-6.86Q71.41-6.57 71.26-6.41Q71.10-6.25 71.03-5.96Q70.97-5.67 70.92-5.60Q70.88-5.54 70.76-5.02Q70.65-4.50 70.42-3.96L70.42-3.96Q70.20-3.60 70.13-3.53Q70.06-3.46 69.84-3.46L69.84-3.46Q69.48-3.46 69.41-3.38Q69.34-3.28 69.12-3.44Q68.89-3.60 68.74-3.60Q68.58-3.60 68.53-3.73Q68.49-3.87 68.33-3.73Q68.17-3.60 68.11-3.87Q68.04-4.14 67.88-4.07Q67.72-4.00 67.68-4.09Q67.63-4.18 67.36-4.32L67.36-4.32Q66.83-4.68 66.83-5.26L66.83-5.26Q66.83-5.54 67.05-5.35L67.05-5.35Q67.23-5.31 67.30-5.31Q67.36-5.31 67.52-6.08Q67.68-6.84 67.84-6.88Q68.00-6.93 68.00-7.04Q68.00-7.15 68.17-7.33L68.17-7.33Q68.58-7.74 68.58-8.46L68.58-8.46Q68.58-8.64 68.53-8.69L68.53-8.69L68.44-8.50Q68.36-8.41 68.31-8.19L68.31-8.19Q68.27-7.83 68.13-7.83Q68.00-7.83 68.04-8.39Q68.08-8.96 68.17-9.07Q68.27-9.18 68.36-9.63Q68.44-10.08 68.51-10.21Q68.58-10.35 68.47-10.51Q68.36-10.66 68.49-11.07L68.49-11.07Q68.76-12.15 68.85-12.46L68.85-12.46Q68.89-12.78 69.08-13.41L69.08-13.41Q69.21-13.95 69.70-16.18Q70.20-18.40 70.33-18.86L70.33-18.86L70.38-19.26L69.66-18.99Q68.22-18.50 66.91-18.72L66.91-18.72Q65.79-18.86 64.78-19.35Q63.77-19.84 63.77-20.20L63.77-20.20Q63.77-20.34 63.99-20.20L63.99-20.20Q64.30-20.02 64.58-20.00Q64.84-19.98 64.89-20.07L64.89-20.07Q64.98-20.25 65.16-20.20L65.16-20.20Q65.38-20.11 65.34-20.25L65.34-20.25Q65.34-20.34 65.16-20.47L65.16-20.47L65.07-20.61Q65.11-20.61 65.30-20.52L65.30-20.52Q65.56-20.34 66.64-20.34L66.64-20.34Q68.00-20.43 68.98-20.93L68.98-20.93L69.39-21.15L68.85-21.73Q68.00-22.68 67.72-24.07L67.72-24.07Q67.45-25.47 67.95-26.95L67.95-26.95Q68.27-27.77 68.85-28.80L68.85-28.80Q69.03-29.16 69.55-29.56Q70.06-29.97 70.38-29.97L70.38-29.97Q70.56-30.06 70.65-30.11ZM71.50-26.50L71.50-26.50Q71.33-26.82 71.14-26.82Q70.97-26.82 70.69-26.50L70.69-26.50Q70.25-26.10 69.97-25.45Q69.70-24.79 69.70-24.21L69.70-24.21Q69.70-23.71 69.95-23.40Q70.20-23.09 70.29-22.99L70.29-22.99Q70.42-22.95 70.63-23.20Q70.83-23.45 71.19-24.07L71.19-24.07Q71.50-24.66 71.55-24.84Q71.59-25.02 71.59-25.52L71.59-25.52Q71.59-26.14 71.50-26.50ZM69.21-11.16L69.25-11.12Q69.30-11.25 69.25-11.29L69.25-11.29L69.21-11.16ZM69.08-10.26L69.08-10.26Q69.21-10.75 69.16-10.80L69.16-10.80L68.85-9.99Q68.76-9.81 68.76-9.72L68.76-9.72Q68.76-9.40 68.98-9.86L68.98-9.86Q69.03-10.04 69.08-10.26ZM67.81-5.76L67.81-5.76Q67.91-5.80 67.86-5.94Q67.81-6.08 67.72-5.89L67.72-5.89Q67.68-5.76 67.81-5.76ZM86.35-28.44L86.35-28.44Q86.53-28.66 86.80-28.62Q87.07-28.57 87.25-28.26L87.25-28.26Q87.39-27.99 87.82-27.36Q88.24-26.73 88.38-26.37L88.38-26.37Q88.47-26.05 88.69-26.03Q88.92-26.01 89.41-26.14L89.41-26.14Q89.86-26.23 90.72-26.32Q91.57-26.41 92.54-26.59Q93.51-26.77 93.91-26.77Q94.32-26.77 94.77-26.95L94.77-26.95Q94.91-27.09 95.11-27.13Q95.31-27.18 95.44-27.16Q95.58-27.13 95.58-27.09L95.58-27.09Q95.58-26.73 96.66-26.28L96.66-26.28Q97.56-26.01 97.88-26.01L97.88-26.01Q98.10-26.01 98.39-25.79Q98.69-25.56 98.59-25.38L98.59-25.38Q98.50-25.15 98.69-25.06L98.69-25.06Q99.04-24.84 98.41-24.66L98.41-24.66Q98.37-24.66 98.28-24.66L98.28-24.66Q97.92-24.52 97.83-24.28Q97.74-24.03 97.00-24.03Q96.25-24.03 93.64-23.80Q91.03-23.58 89.86-23.63L89.86-23.63L88.74-23.67L88.74-23.13Q88.74-21.78 88.29-20.02L88.29-20.02Q88.11-19.44 88.18-19.35Q88.24-19.26 89.77-19.17L89.77-19.17Q92.97-18.99 94.95-17.37L94.95-17.37Q95.94-16.52 96.30-15.52L96.30-15.52Q96.75-14.26 96.44-13.00L96.44-13.00Q96.30-12.46 96.19-11.83Q96.07-11.21 95.98-11.07L95.98-11.07Q95.85-10.98 95.63-10.62Q95.40-10.26 95.40-10.04L95.40-10.04Q95.40-9.81 95.20-9.81Q94.99-9.81 95.04-9.58L95.04-9.58Q95.22-9.27 92.61-6.75L92.61-6.75Q92.16-6.34 91.28-5.76Q90.41-5.17 90.13-5.17L90.13-5.17Q89.95-5.17 89.46-4.93Q88.96-4.68 88.63-4.68Q88.29-4.68 88.16-4.54L88.16-4.54Q87.97-4.41 86.92-4.21Q85.86-4.00 85.14-3.96L85.14-3.96Q83.07-3.92 82.03-4.37L82.03-4.37Q81.58-4.54 81.52-4.54Q81.45-4.54 81.18-4.81Q80.91-5.08 80.91-5.13L80.91-5.13Q80.91-5.31 80.05-6.21L80.05-6.21Q79.96-6.34 79.90-6.46Q79.83-6.57 79.85-6.68Q79.88-6.79 80.01-6.79L80.01-6.79Q80.14-6.79 80.14-6.66Q80.14-6.52 80.41-6.48Q80.69-6.43 80.69-6.59Q80.69-6.75 80.39-7.00Q80.10-7.25 79.96-7.51L79.96-7.51L79.88-7.65Q79.96-7.65 80.10-7.51L80.10-7.51Q80.41-7.25 80.46-7.31Q80.50-7.38 80.19-8.19L80.19-8.19Q79.74-9.31 80.14-9.31L80.14-9.31Q80.41-9.22 80.64-9L80.64-9Q80.50-9 81.13-8.46Q81.77-7.92 81.83-7.83Q81.90-7.74 82.15-7.65Q82.39-7.56 82.35-7.38L82.35-7.38Q82.35-7.20 82.44-7.15Q82.53-7.11 82.94-7.06L82.94-7.06Q83.88-7.02 85.61-7.79Q87.34-8.55 88.24-9.36L88.24-9.36Q88.47-9.58 88.58-9.74Q88.69-9.90 88.72-9.97Q88.74-10.04 88.69-10.10Q88.65-10.17 88.47-10.21L88.47-10.21Q88.24-10.30 88.60-10.66L88.60-10.66Q88.69-10.75 88.92-10.98L88.92-10.98Q89.86-11.92 90.54-13.18Q91.21-14.45 91.21-15.34L91.21-15.34Q91.21-15.93 90.97-16.06Q90.72-16.20 89.73-16.16L89.73-16.16Q88.56-16.06 88.24-15.97Q87.93-15.88 87.39-15.84L87.39-15.84Q86.27-15.71 85.95-15.34L85.95-15.34Q85.86-15.16 85.55-15.12Q85.23-15.07 84.96-15.12Q84.69-15.16 84.69-15.30L84.69-15.30Q84.69-15.43 84.44-15.73Q84.19-16.02 84.02-16.90Q83.83-17.77 83.41-18.22Q82.98-18.68 82.98-19.37Q82.98-20.07 83.09-20.11Q83.20-20.16 83.56-20.45Q83.92-20.75 84.44-22.16Q84.96-23.58 85.07-23.83Q85.19-24.07 85.68-26.10Q86.17-28.13 86.35-28.44ZM80.39-6.03Q80.50-6.03 80.44-6.14Q80.37-6.25 80.32-6.25Q80.28-6.25 80.28-6.14Q80.28-6.03 80.39-6.03Z" transform="translate(-0.18000000000000002, 31.342499999999998)"></path></g> <!----> <!----> <!----> <!----> <!----> <!----> <!----></g> <!----></g></g></svg>