<svg data-v-0dd9719b="" version="1.0" xmlns="http://www.w3.org/2000/svg" xmlns:xlink="http://www.w3.org/1999/xlink"
  width="100%" height="100%" viewBox="0 0 113 80" preserveAspectRatio="xMidYMid meet" color-interpolation-filters="sRGB"
  style="margin: auto;">
  <g data-v-0dd9719b="" class="iconmbgsvg" transform="translate(0,0)">
    <g fill="#000000" hollow-target="textNormalTran">
      <g opacity="0.55">
        <g>
          <rect fill="#000000" fill-opacity="0" stroke-width="2" x="0" y="0" width="112.5" height="77.68156771761197"
            class="image-rect"></rect> <svg x="0" y="0" width="112.5" height="77.68156771761197"
            filtersec="colorsb3753655726" class="image-svg-svg primary" style="overflow: visible;"><svg
              xmlns="http://www.w3.org/2000/svg"
              viewBox="0.006339073181152344 -0.042720794677734375 342.9934387207031 236.83859252929688">
              <defs>
                <linearGradient id="1b32fc3a-c29c-4905-9c8c-142764d108ff" x1="220.45" y1="91.55" x2="97.78" y2="214.23"
                  gradientUnits="userSpaceOnUse">
                  <stop offset="0" stop-color="#f75835"></stop>
                  <stop offset=".26" stop-color="#4e374f"></stop>
                  <stop offset=".76" stop-color="#f75835"></stop>
                  <stop offset="1" stop-color="#4e374f"></stop>
                </linearGradient>
                <linearGradient id="1ee3ab2e-20f4-487e-bcc7-f6176d8216d6" x1="45.48" y1="97.33" x2="131.89" y2="12.93"
                  gradientUnits="userSpaceOnUse">
                  <stop offset="0" stop-color="#f75835"></stop>
                  <stop offset=".26" stop-color="#4e374f"></stop>
                  <stop offset=".76" stop-color="#f75835"></stop>
                  <stop offset="1" stop-color="#4e374f"></stop>
                </linearGradient>
                <linearGradient id="c380c6bc-56a5-45e6-8cca-96ae83127642" x1="114.64" y1="169.07" x2="26.68" y2="81.11"
                  gradientUnits="userSpaceOnUse">
                  <stop offset="0" stop-color="#f75835"></stop>
                  <stop offset=".26" stop-color="#4e374f"></stop>
                  <stop offset=".76" stop-color="#f75835"></stop>
                  <stop offset="1" stop-color="#4e374f"></stop>
                </linearGradient>
                <linearGradient id="b81356dd-87b4-49c7-be59-dcb88a937c11" x1="161.97" y1="397.12" x2="42.33" y2="516.76"
                  gradientTransform="rotate(180 142.12 272.305)" gradientUnits="userSpaceOnUse">
                  <stop offset="0" stop-color="#f75835"></stop>
                  <stop offset=".26" stop-color="#4e374f"></stop>
                  <stop offset=".76" stop-color="#f75835"></stop>
                  <stop offset="1" stop-color="#4e374f"></stop>
                </linearGradient>
                <linearGradient id="04bc72b4-d018-4ad4-9c83-b0f56ce051ce" x1="-12.65" y1="397.66" x2="67.13" y2="319.74"
                  gradientTransform="rotate(180 142.12 272.305)" gradientUnits="userSpaceOnUse">
                  <stop offset="0" stop-color="#f75835"></stop>
                  <stop offset=".26" stop-color="#4e374f"></stop>
                  <stop offset=".76" stop-color="#f75835"></stop>
                  <stop offset="1" stop-color="#4e374f"></stop>
                </linearGradient>
                <linearGradient id="1d51efb9-823e-4a7d-b442-016854601be9" x1="60.65" y1="476.51" x2="-34.06" y2="381.81"
                  gradientTransform="rotate(180 142.12 272.305)" gradientUnits="userSpaceOnUse">
                  <stop offset="0" stop-color="#f75835"></stop>
                  <stop offset=".26" stop-color="#4e374f"></stop>
                  <stop offset=".76" stop-color="#f75835"></stop>
                  <stop offset="1" stop-color="#4e374f"></stop>
                </linearGradient>
              </defs>
              <g>
                <g>
                  <path
                    d="M124.83 168.93c30.28-26.37 59.75-53.36 88.36-81.54C227 101 241 114.41 254.9 127.87c-34.34 34-69.93 66.31-106.1 98.31-14.89 13.07-38.74 15-53.43.55-13.43-13.54-26.94-27-40.74-40.12a377.24 377.24 0 0 1 70.2-17.68z"
                    fill="url(#1b32fc3a-c29c-4905-9c8c-142764d108ff)"></path>
                  <path
                    d="M21.32 83.5Q56.39 47.35 92.28 12c13.9-13.77 37.39-17.48 51.46-1.82 5.82 6.53 8.59 9.79 14.14 16.29-28.37 29.9-59.88 56.39-88.66 85.9-15.96-9.64-32.06-19.05-47.9-28.87z"
                    fill="url(#1ee3ab2e-20f4-487e-bcc7-f6176d8216d6)"></path>
                  <path
                    d="M54.64 186.61c-14.73-13.88-29.7-27.49-44.39-41.41-14.08-13.82-13.32-36.8.28-50.62C28.69 76.1 46.71 57.34 65.05 39c-21.81 26.9-20.42 50 4.17 73.37 18.87 17.93 37.19 37.47 55.61 56.56-19.07 15.89-46.75 41.56-70.19 17.68z"
                    fill="url(#c380c6bc-56a5-45e6-8cca-96ae83127642)"></path>
                  <path
                    d="M212.72 68.15c-28 28.16-56.63 55.31-86.51 81.46C114 136.35 101.94 123 89.09 110.3c34.18-32.9 69-63.89 100.54-99.47 12.69-14.5 35-12.94 48.29-.06 15.46 15 31.1 29.86 46.73 44.71q-35.87 6.99-71.93 12.67z"
                    fill="url(#b81356dd-87b4-49c7-be59-dcb88a937c11)"></path>
                  <path
                    d="M322.26 162.87q-31.65 31.74-63.47 63.29c-14.31 14.11-37 13.19-51.63 0-7.1-6.47-10.73-9.69-17.91-16.11 29.23-26.53 57.42-54 85.32-82q23.98 17.26 47.69 34.82z"
                    fill="url(#04bc72b4-d018-4ad4-9c83-b0f56ce051ce)"></path>
                  <path
                    d="M284.65 55.48q24.16 23 48 46.41a36.11 36.11 0 0 1 0 50.61q-24.87 25-49.93 49.94c21.49-27.49 14.65-51.22-8.12-74.31-19.65-19.92-41.67-39.55-61.84-60 23.56-22.29 43.82-35.13 71.89-12.65z"
                    fill="url(#1d51efb9-823e-4a7d-b442-016854601be9)"></path>
                </g>
              </g>
            </svg></svg>
          <!---->
        </g>
      </g>
      <g transform="translate(15.980003356933594,14.210783004760742)">
        <g data-gra="path-name" fill-rule="" class="tp-name">
          <g transform="scale(1)">
            <g>
              <path
                d="M13.33-48.62Q13.33-46.48 11.51-42.67 9.69-38.87 8.06-37.18L8.06-37.18Q7.8-36.79 7.28-36.79L7.28-36.79Q5.66-36.79 5.66-39.39 5.66-41.99 7.93-46.67L7.93-46.67Q8.38-47.65 8.52-48.69 8.64-49.73 8.68-49.89 8.71-50.05 8.74-50.15 8.78-50.25 8.81-50.41 8.84-50.57 8.87-50.67 8.91-50.77 8.97-50.86 9.04-50.96 9.1-51.02L9.1-51.02Q9.29-51.16 10.14-51.16 10.99-51.16 12.16-50.44 13.33-49.73 13.33-48.62L13.33-48.62ZM13.97-19.76Q14.69-20.87 14.98-20.87 15.28-20.87 15.44-19.24 15.6-17.62 15.6-14.92 15.6-12.22 14.33-9.13 13.07-6.04 10.66-4.16L10.66-4.16Q9.29-3.12 8.16-3.12 7.02-3.12 6.27-3.61 5.53-4.09 4.94-5.2L4.94-5.2Q3.97-6.76 3.02-9.23 2.08-11.7 2.08-14.56 2.08-17.42 2.54-20.35 2.99-23.27 2.99-24.28 2.99-25.29 1.95-26.88 0.91-28.47 0.91-28.8 0.91-29.12 1.14-29.48 1.36-29.84 1.72-30.19 2.08-30.55 2.44-30.81 2.79-31.07 3.25-31.46L3.25-31.46Q4.75-32.7 5.98-32.7 7.21-32.7 8.16-31.85 9.1-31.01 9.07-28.93 9.04-26.85 8.06-21.06L8.06-21.06Q6.83-13.65 6.83-12.54 6.83-11.44 7.41-11.44L7.41-11.44Q8.71-11.44 13.97-19.76L13.97-19.76ZM40.43-13.13L40.63-9.75Q40.63-6.17 38.74-6.17L38.74-6.17Q37.25-6.17 36.14-7.74 35.04-9.29 34.45-10.56 33.87-11.83 33.28-12.97 32.7-14.11 32.24-15.67L32.24-15.67Q32.17-15.47 31.85-14.3L31.85-14.3 31.33-12.54Q30.55-9.69 30.13-8.74 29.71-7.8 29.22-6.66 28.73-5.53 28.21-4.84 27.69-4.16 27.11-3.51L27.11-3.51Q25.94-2.15 24.28-2.15 22.62-2.15 21.06-4.03L21.06-4.03Q18.4-7.15 17.16-11.83L17.16-11.83Q16.58-13.78 16.58-16.32 16.58-18.85 18.14-21.94 19.7-25.03 22.82-28.73 25.94-32.44 28.6-32.44L28.6-32.44Q30.03-32.44 31.85-31.07L31.85-31.07Q32.24-34.58 33.15-41.02 34.06-47.45 34.26-49.43 34.45-51.41 35.65-51.41 36.86-51.41 37.41-50.15 37.96-48.88 37.96-47.65 37.96-46.41 37.77-45.37L37.77-45.37Q35.95-26.78 35.95-15.15L35.95-15.15Q35.95-13.39 36.92-13.39 37.9-13.39 39.03-14.92 40.17-16.45 40.53-16.45 40.89-16.45 40.89-15.93L40.89-15.93 40.43-13.13ZM30.16-25.55Q30.16-26.32 29.41-26.32 28.67-26.32 27.63-25.68L27.63-25.68Q24.25-23.79 22.07-19.82 19.89-15.86 19.89-11.89L19.89-11.89Q19.89-9.49 21.39-9.49L21.39-9.49Q21.97-9.49 22.69-10.21L22.69-10.21Q26.33-14.04 29.9-24.38L29.9-24.38Q30.16-25.03 30.16-25.55L30.16-25.55ZM53.89-48.62Q53.89-46.48 52.07-42.67 50.25-38.87 48.62-37.18L48.62-37.18Q48.36-36.79 47.84-36.79L47.84-36.79Q46.22-36.79 46.22-39.39 46.22-41.99 48.49-46.67L48.49-46.67Q48.95-47.65 49.08-48.69 49.2-49.73 49.24-49.89 49.27-50.05 49.3-50.15 49.34-50.25 49.37-50.41 49.4-50.57 49.43-50.67 49.47-50.77 49.53-50.86 49.59-50.96 49.66-51.02L49.66-51.02Q49.86-51.16 50.7-51.16 51.55-51.16 52.72-50.44 53.89-49.73 53.89-48.62L53.89-48.62ZM54.54-19.76Q55.25-20.87 55.54-20.87 55.84-20.87 56-19.24 56.16-17.62 56.16-14.92 56.16-12.22 54.89-9.13 53.63-6.04 51.22-4.16L51.22-4.16Q49.86-3.12 48.72-3.12 47.58-3.12 46.83-3.61 46.09-4.09 45.5-5.2L45.5-5.2Q44.53-6.76 43.58-9.23 42.64-11.7 42.64-14.56 42.64-17.42 43.09-20.35 43.55-23.27 43.55-24.28 43.55-25.29 42.51-26.88 41.47-28.47 41.47-28.8 41.47-29.12 41.7-29.48 41.93-29.84 42.28-30.19 42.64-30.55 43-30.81 43.36-31.07 43.81-31.46L43.81-31.46Q45.3-32.7 46.54-32.7 47.78-32.7 48.72-31.85 49.66-31.01 49.63-28.93 49.59-26.85 48.62-21.06L48.62-21.06Q47.39-13.65 47.39-12.54 47.39-11.44 47.97-11.44L47.97-11.44Q49.27-11.44 54.54-19.76L54.54-19.76ZM80.99-13.13L81.19-9.75Q81.19-6.17 79.3-6.17L79.3-6.17Q77.81-6.17 76.7-7.74 75.59-9.29 75.01-10.56 74.43-11.83 73.84-12.97 73.25-14.11 72.8-15.67L72.8-15.67Q72.73-15.47 72.41-14.3L72.41-14.3 71.89-12.54Q71.11-9.69 70.69-8.74 70.27-7.8 69.78-6.66 69.29-5.53 68.77-4.84 68.25-4.16 67.67-3.51L67.67-3.51Q66.5-2.15 64.84-2.15 63.18-2.15 61.62-4.03L61.62-4.03Q58.96-7.15 57.72-11.83L57.72-11.83Q57.14-13.78 57.14-16.32 57.14-18.85 58.7-21.94 60.26-25.03 63.38-28.73 66.5-32.44 69.16-32.44L69.16-32.44Q70.59-32.44 72.41-31.07L72.41-31.07Q72.8-34.58 73.71-41.02 74.62-47.45 74.81-49.43 75.01-51.41 76.21-51.41 77.42-51.41 77.97-50.15 78.52-48.88 78.52-47.65 78.52-46.41 78.33-45.37L78.33-45.37Q76.51-26.78 76.51-15.15L76.51-15.15Q76.51-13.39 77.48-13.39 78.46-13.39 79.59-14.92 80.73-16.45 81.09-16.45 81.45-16.45 81.45-15.93L81.45-15.93 80.99-13.13ZM70.72-25.55Q70.72-26.32 69.97-26.32 69.23-26.32 68.19-25.68L68.19-25.68Q64.81-23.79 62.63-19.82 60.45-15.86 60.45-11.89L60.45-11.89Q60.45-9.49 61.95-9.49L61.95-9.49Q62.53-9.49 63.25-10.21L63.25-10.21Q66.89-14.04 70.46-24.38L70.46-24.38Q70.72-25.03 70.72-25.55L70.72-25.55Z"
                transform="translate(-0.9100000262260437, 51.40999984741211)" style="
    fill: #000;
"></path>
            </g>
          </g>
        </g>
        <!---->
      </g>
    </g>
  </g>
  <defs v-gra="od"></defs>
</svg>